<?xml version="1.0" encoding="utf-8"?>
<!-- Generator: Adobe Illustrator 16.0.4, SVG Export Plug-In . SVG Version: 6.00 Build 0)  -->
<!DOCTYPE svg PUBLIC "-//W3C//DTD SVG 1.1//EN" "http://www.w3.org/Graphics/SVG/1.1/DTD/svg11.dtd">
<svg version="1.1" xmlns="http://www.w3.org/2000/svg" xmlns:xlink="http://www.w3.org/1999/xlink" x="0px" y="0px"
	 width="113.387px" height="113.386px" viewBox="0 0 113.387 113.386" enable-background="new 0 0 113.387 113.386"
	 xml:space="preserve">
<g id="Layer_1" display="none">
	<g id="Layer_2">
	</g>
	<g id="Layer_4">
	</g>
	<g id="Layer_3">
		<g display="inline">
			<path fill="#FFFFFF" d="M39.511,96.253L2.75,68.994V38.555l8.245-10.307l13.958-3.673l6.909-8.188l15.239,7.794l7.217-6.292
				l25.822-6l4.418,13.927l13.082,6.573l11.527,7.571v33.902L39.511,96.253z M40.908,64.597l-0.229,29.225l42.802-13.758V52.665
				L40.908,64.597z M22.076,80.888l16.651,12.348l0.228-29.184l-9.097-20.924l-7.782,8.623V80.888z M4.707,68.009L20.12,79.437
				V51.576l-8.819-20.577l-6.594,8.242V68.009z M85.439,51.688v27.748l21.771-6.998V40.771l-9.437-6.145L85.439,51.688z
				 M31.516,42.033l8.976,20.646l42.58-11.933l-9.715-18.37L31.516,42.033z M12.903,29.771l8.492,19.814l7.518-8.675l2.584-0.749
				l-6.529-13.565L12.903,29.771z M84.623,49.457l11.23-15.792l-19.408-9.718l-5.253,6.922l3.263-0.753L84.623,49.457z
				 M26.657,25.591L33.356,39.6l7.141-1.647l6.867-11.385l-15.012-7.727L26.657,25.591z M48.956,27.717l-5.804,9.624l12.906-2.979
				L48.956,27.717z M48.621,25.16l1.062,0.75l8.673,7.92l1.332-0.307l-5.37-13.134L48.621,25.16z M55.959,19.556l5.66,13.522
				l6.596-1.522l7.555-10.01l6.789,3.426l-3.416-10.917L55.959,19.556z"/>
			<path fill="none" stroke="#FFFFFF" stroke-width="1.5" stroke-miterlimit="10" d="M39.511,96.253L2.75,68.994V38.555
				l8.245-10.307l13.958-3.673l6.909-8.188l15.239,7.794l4.53-8.488l28.51-3.804l4.418,13.927l13.082,6.573l11.527,7.571v33.902
				L39.511,96.253z M40.908,64.597l-0.229,29.225l42.802-13.758V52.665L40.908,64.597z M22.076,80.888l16.651,12.348l0.228-29.184
				l-9.097-20.924l-7.782,8.623V80.888z M4.707,68.009L20.12,79.437V51.576l-8.819-20.577l-6.594,8.242V68.009z M85.439,51.688
				v27.748l21.771-6.998V40.771l-9.437-6.145L85.439,51.688z M31.516,42.033l8.976,20.646l42.58-11.933l-9.715-18.37L31.516,42.033z
				 M12.903,29.771l8.492,19.814l7.518-8.675l2.584-0.749l-6.529-13.565L12.903,29.771z M84.623,49.457l11.23-15.792l-19.408-9.718
				l-5.253,6.922l3.263-0.753L84.623,49.457z M26.657,25.591L33.356,39.6l7.141-1.647l6.867-11.385l-15.012-7.727L26.657,25.591z
				 M48.956,27.717l-5.804,9.624l12.906-2.979L48.956,27.717z M48.621,25.16l1.062,0.75l8.673,7.92l1.332-0.307l-5.37-13.134
				L48.621,25.16z M55.959,19.556l5.66,13.522l6.596-1.522l7.555-10.01l6.789,3.426l-3.416-10.917L55.959,19.556z"/>
		</g>
	</g>
</g>
<g id="Layer_3_1_">
	<polygon display="none" fill="none" stroke="#FFFFFF" stroke-width="1.5" stroke-miterlimit="10" points="12.361,68.694 
		44.027,92.361 104.027,72.861 104.027,44.527 95.527,35.694 82.694,29.694 78.527,20.694 56.693,25.693 51.318,31.068 
		37.943,24.443 31.976,32.201 19.194,35.36 12.361,43.194 	"/>
	
		<line display="none" fill="none" stroke="#FFFFFF" stroke-width="1.5" stroke-miterlimit="10" x1="19.194" y1="35.36" x2="27.318" y2="53.693"/>
	
		<line display="none" fill="none" stroke="#FFFFFF" stroke-width="1.5" stroke-miterlimit="10" x1="27.318" y1="53.693" x2="27.318" y2="79.873"/>
	
		<line display="none" fill="none" stroke="#FFFFFF" stroke-width="1.5" stroke-miterlimit="10" x1="44.068" y1="64.818" x2="35.568" y2="44.527"/>
	
		<line display="none" fill="none" stroke="#FFFFFF" stroke-width="1.5" stroke-miterlimit="10" x1="35.568" y1="44.527" x2="27.318" y2="53.693"/>
	
		<line display="none" fill="none" stroke="#FFFFFF" stroke-width="1.5" stroke-miterlimit="10" x1="44.068" y1="64.818" x2="44.027" y2="92.361"/>
	
		<line display="none" fill="none" stroke="#FFFFFF" stroke-width="1.5" stroke-miterlimit="10" x1="35.568" y1="44.527" x2="74.193" y2="34.693"/>
	
		<line display="none" fill="none" stroke="#FFFFFF" stroke-width="1.5" stroke-miterlimit="10" x1="74.193" y1="34.693" x2="82.943" y2="53.693"/>
	
		<line display="none" fill="none" stroke="#FFFFFF" stroke-width="1.5" stroke-miterlimit="10" x1="82.943" y1="53.693" x2="82.943" y2="79.713"/>
	
		<line display="none" fill="none" stroke="#FFFFFF" stroke-width="1.5" stroke-miterlimit="10" x1="82.943" y1="53.693" x2="95.527" y2="35.694"/>
	
		<line display="none" fill="none" stroke="#FFFFFF" stroke-width="1.5" stroke-miterlimit="10" x1="51.318" y1="31.068" x2="53.318" y2="32.068"/>
	
		<line display="none" fill="none" stroke="#FFFFFF" stroke-width="1.5" stroke-miterlimit="10" x1="53.318" y1="32.068" x2="45.959" y2="41.881"/>
	
		<line display="none" fill="none" stroke="#FFFFFF" stroke-width="1.5" stroke-miterlimit="10" x1="53.318" y1="32.068" x2="59.387" y2="38.462"/>
	
		<line display="none" fill="none" stroke="#FFFFFF" stroke-width="1.5" stroke-miterlimit="10" x1="56.693" y1="25.693" x2="61.767" y2="37.857"/>
	
		<line display="none" fill="none" stroke="#FFFFFF" stroke-width="1.5" stroke-miterlimit="10" x1="82.694" y1="29.694" x2="77.193" y2="26.943"/>
	
		<line display="none" fill="none" stroke="#FFFFFF" stroke-width="1.5" stroke-miterlimit="10" x1="77.193" y1="26.943" x2="70.814" y2="35.553"/>
	
		<line display="none" fill="none" stroke="#FFFFFF" stroke-width="1.5" stroke-miterlimit="10" x1="44.068" y1="64.818" x2="82.943" y2="53.693"/>
	
		<line display="none" fill="none" stroke="#FFFFFF" stroke-width="1.5" stroke-miterlimit="10" x1="31.976" y1="32.201" x2="36.88" y2="44.193"/>
	
		<image display="none" overflow="visible" enable-background="new    " width="620" height="797" xlink:href="Archive/Elements/bda73aace36c6435315ab1faeaa2ea6e.jpg"  transform="matrix(1 0 0 1 -1441.7188 657.6187)">
	</image>
	<g display="none">
		
			<image display="inline" overflow="visible" width="620" height="797" xlink:href="Archive/Elements/bda73aace36c6435315ab1faeaa2ea6e.jpg"  transform="matrix(1 0 0 1 -1442.8066 657.1929)">
		</image>
	</g>
	<g>
		<g>
			<g>
				<path fill="#FFFFFF" d="M41.079,96.174 M12.86,30.99l14.89-3.399 M31.754,42.508L75.788,30.99 M75.788,30.99l9.453,22.006
					 M12.86,30.99l10.159,22.006 M54.99,21.318l6.417,13.307 M82.024,15.149l4.883,13.077 M12.86,30.99L4.677,41.784 M54.99,21.318
					l-6.483,5.952 M78.043,23.3l-6.559,8.685 M51.379,28.85L33.46,18.997 M78.043,23.3l20.602,11.449 M33.46,18.997l-5.71,8.594
					 M54.99,21.318l27.035-6.169 M85.241,52.996L41.085,64.514 M98.645,34.749l10.441,11.197 M51.379,28.85l6.433,6.732
					 M98.645,34.749L85.241,52.996 M51.379,28.85l-8.19,10.675 M27.75,27.591l6.556,14.193 M4.677,41.784v27.301 M4.677,69.084
					l36.402,27.09 M41.079,96.174l68.007-21.869 M109.086,45.946 M109.086,74.305 M85.241,52.996v28.976 M41.079,96.174
					 M41.085,64.514 M23.019,52.996l-0.141,29.633 M31.754,42.508l9.331,22.006 M31.754,42.508l-8.736,10.488 M41.079,96.174
					l0.006-31.66 M109.086,45.946v28.359"/>
				<path fill="#FFFFFF" d="M41.155,96.413l-0.077-0.238l-0.149,0.2L4.527,69.285l0.149-0.2h-0.25V41.784h0.25l-0.199-0.151
					l8.183-10.793l0.199,0.151l-0.056-0.244l14.793-3.377l5.655-8.511l0.208,0.138l0.121-0.219l14.889,8.187l6.351-5.831
					l0.169,0.184l-0.056-0.244l27.035-6.169l0.056,0.244l0.234-0.087l4.851,12.991l11.656,6.478l-0.121,0.219l0.183-0.17
					l10.441,11.197l-0.183,0.17h0.25v28.359h-0.25l0.076,0.238L41.155,96.413z M41.335,64.708l-0.006,31.124l43.663-14.041V53.32
					L41.335,64.708z M23.128,82.504l17.701,13.172l0.006-31.111l-9.151-21.582l-8.416,10.104L23.128,82.504z M4.927,68.958
					L22.63,82.133l0.138-29.083l-9.96-21.577L4.927,41.868V68.958z M85.491,53.078V81.63l23.345-7.508V46.044L98.667,35.14
					L85.491,53.078z M32.098,42.677l9.133,21.541l43.666-11.39l-9.253-21.541L32.098,42.677z M13.216,31.166l9.864,21.367
					l8.483-10.184l0.192,0.16l-0.063-0.242l2.286-0.598L27.608,27.88L13.216,31.166z M76.018,30.892l9.281,21.604l12.977-17.667
					L78.111,23.624l-6.117,8.1l3.73-0.976l0.063,0.242L76.018,30.892z M28.036,27.613l6.433,13.927l8.581-2.245l7.954-10.367
					l-17.462-9.601L28.036,27.613z M51.4,29.233l-7.562,9.856l13.584-3.553L51.4,29.233z M51.56,28.677l6.415,6.714l3.129-0.818
					L54.911,21.73l-5.979,5.489L51.5,28.63l-0.121,0.219L51.56,28.677z M55.351,21.492l6.246,12.952l9.763-2.554l-0.074-0.057
					l6.559-8.685l0.199,0.151l0.121-0.219l8.271,4.597l-4.568-12.236L55.351,21.492z"/>
			</g>
			<g>
				<path fill="#FFFFFF" d="M41.055,97.345L3.547,69.614V41.536l8.866-11.548l14.646-3.396l6.076-9.112l15.204,8.412l6.26-5.49
					l28.068-6.527l5.152,13.567l11.512,6.468l10.883,11.612v29.559L41.055,97.345z M42.214,65.387l-0.006,29.239L84.113,81.15
					V54.457L42.214,65.387z M24.009,82.065L39.95,93.927l0.006-29.184l-8.519-20.091l-7.292,8.755L24.009,82.065z M86.37,53.366
					v27.059l21.587-6.942V46.391l-9.208-9.877L86.37,53.366z M5.805,68.518l15.954,11.874l0.13-27.151L12.623,33.17l-6.818,8.993
					V68.518z M33.303,43.27l8.44,19.906l41.942-10.94l-8.551-19.908L33.303,43.27z M14.468,31.781l8.826,19.121l7.957-9.391
					l1.488-0.426l-5.63-12.189L14.468,31.781z M85.499,50.738l11.479-15.625l-18.624-10.35l-4.132,5.469l2.187-0.55L85.499,50.738z
					 M29.039,27.691l5.919,12.813l7.726-2.021l7.004-9.275l-15.862-8.722L29.039,27.691z M51.476,30.585l-5.318,6.989l9.598-2.511
					L51.476,30.585z M58.254,34.41l1.594-0.417l-5.214-10.814l-4.206,3.86l1.713,1.046L58.254,34.41z M56.621,22.104l5.451,11.307
					l8.624-2.255l7.148-9.302l6.935,3.898l-3.467-9.283L56.621,22.104z"/>
				<path fill="#FFFFFF" d="M41.009,97.623L3.297,69.74V41.451l8.972-11.687l0.087-0.021l14.55-3.374l6.148-9.221l15.252,8.438
					l6.236-5.43l28.281-6.576l5.197,13.687l11.493,6.471l10.95,11.685v29.84l-0.174,0.056L41.009,97.623z M3.797,69.488L41.1,97.068
					l68.865-22.17V45.62L99.176,34.108l-11.557-6.494l-5.107-13.448L54.717,20.63l-6.345,5.564l-15.156-8.385l-6.004,9.003
					L12.557,30.21l-8.759,11.41V69.488z M41.958,94.969l0.006-29.775l42.399-11.061v27.199l-0.174,0.056L41.958,94.969z
					 M42.464,65.581l-0.006,28.703l41.405-13.316V54.781L42.464,65.581z M40.2,94.425L23.758,82.19l0.138-28.874l7.612-9.139
					l8.699,20.566L40.2,94.425z M24.259,81.94L39.7,93.429l0.006-28.635l-8.339-19.667l-6.972,8.371L24.259,81.94z M22.006,80.888
					L5.555,68.644V42.08l7.12-9.392l9.464,20.5l0,0.055L22.006,80.888z M6.055,68.392l15.456,11.504l0.127-26.601l-9.068-19.642
					l-6.516,8.594V68.392z M86.12,80.768V53.284l0.049-0.066l12.558-17.095l9.48,10.169v27.373L86.12,80.768z M86.62,53.448v26.634
					l21.087-6.782V46.49l-8.936-9.584L86.62,53.448z M41.598,63.473l-0.084-0.199L32.96,43.102l42.319-11.07l8.751,20.373
					L41.598,63.473z M33.646,43.438l8.243,19.441l41.451-10.812L74.99,32.624L33.646,43.438z M23.232,51.362l-9.12-19.757
					l13.139-2.999l5.837,12.638l-1.695,0.485L23.232,51.362z M14.824,31.956l8.533,18.484l7.753-9.149l1.28-0.367l-5.423-11.74
					L14.824,31.956z M85.442,51.237l-9.18-21.26l-2.668,0.671l4.69-6.209l19.062,10.593L85.442,51.237z M76.554,29.388l0.084,0.195
					l8.918,20.655l11.053-15.045L78.422,25.087l-3.573,4.729L76.554,29.388z M34.819,40.799l-6.065-13.13l4.991-7.513l16.317,8.972
					l-7.23,9.575L34.819,40.799z M29.325,27.713l5.772,12.496l7.439-1.946l6.778-8.976l-15.408-8.472L29.325,27.713z M45.521,38
					l5.934-7.798l4.775,4.997L45.521,38z M51.498,30.97l-4.702,6.179l8.486-2.22L51.498,30.97z M58.176,34.688l-6.193-6.407
					l-1.969-1.203l4.698-4.312l5.493,11.391L58.176,34.688z M50.841,26.998l1.479,0.913l6.012,6.22l1.158-0.303L54.554,23.59
					L50.841,26.998z M61.937,33.705L56.26,21.93l25.21-5.754l3.783,10.128l-7.342-4.127l-7.068,9.198L61.937,33.705z M56.982,22.278
					l5.226,10.839l8.342-2.182l7.229-9.406l6.527,3.67l-3.15-8.438L56.982,22.278z"/>
			</g>
		</g>
	</g>
</g>
<g id="Layer_2_1_">
</g>
</svg>
