<?xml version="1.0" encoding="utf-8"?>
<!-- Generator: Adobe Illustrator 16.0.4, SVG Export Plug-In . SVG Version: 6.00 Build 0)  -->
<!DOCTYPE svg PUBLIC "-//W3C//DTD SVG 1.1//EN" "http://www.w3.org/Graphics/SVG/1.1/DTD/svg11.dtd">
<svg version="1.1" id="Layer_1" xmlns="http://www.w3.org/2000/svg" xmlns:xlink="http://www.w3.org/1999/xlink" x="0px" y="0px"
	 width="107.166px" height="87.443px" viewBox="3.297 25.943 107.166 87.443" enable-background="new 3.297 25.943 107.166 87.443"
	 xml:space="preserve">
<g id="Layer_1_1_" display="none">
	<g id="Layer_2" display="inline">
	</g>
	<g id="Layer_4" display="inline">
	</g>
	<g id="Layer_3" display="inline">
		<g>
			<path fill="#FFFFFF" d="M39.511,96.253L2.75,68.994V38.555l8.245-10.307l13.958-3.673l6.909-8.188l15.239,7.794l7.217-6.292
				l25.823-6l4.418,13.927l13.082,6.573l11.526,7.571v33.902L39.511,96.253z M40.908,64.597l-0.229,29.225L83.48,80.064V52.665
				L40.908,64.597z M22.076,80.888l16.651,12.348l0.228-29.184l-9.097-20.924l-7.782,8.623V80.888z M4.707,68.009L20.12,79.437
				V51.576l-8.819-20.577l-6.594,8.242V68.009z M85.439,51.688v27.748l21.771-6.998V40.771l-9.437-6.145L85.439,51.688z
				 M31.516,42.033l8.976,20.646l42.58-11.933l-9.715-18.37L31.516,42.033z M12.903,29.771l8.492,19.814l7.518-8.675l2.584-0.749
				l-6.529-13.565L12.903,29.771z M84.623,49.457l11.23-15.792l-19.408-9.718l-5.254,6.922l3.264-0.753L84.623,49.457z
				 M26.657,25.591L33.356,39.6l7.141-1.647l6.867-11.385l-15.012-7.727L26.657,25.591z M48.956,27.717l-5.804,9.624l12.906-2.979
				L48.956,27.717z M48.621,25.16l1.062,0.75l8.672,7.92l1.332-0.307l-5.37-13.134L48.621,25.16z M55.959,19.556l5.66,13.522
				l6.596-1.522l7.555-10.01l6.789,3.426l-3.416-10.917L55.959,19.556z"/>
			<path fill="none" stroke="#FFFFFF" stroke-width="1.5" stroke-miterlimit="10" d="M39.511,96.253L2.75,68.994V38.555
				l8.245-10.307l13.958-3.673l6.909-8.188l15.239,7.794l4.53-8.488l28.51-3.804l4.418,13.927l13.082,6.573l11.527,7.571v33.902
				L39.511,96.253z M40.908,64.597l-0.229,29.225L83.48,80.064V52.665L40.908,64.597z M22.076,80.888l16.651,12.348l0.228-29.184
				l-9.097-20.924l-7.782,8.623V80.888z M4.707,68.009L20.12,79.437V51.576l-8.819-20.577l-6.594,8.242V68.009z M85.439,51.688
				v27.748l21.771-6.998V40.771l-9.437-6.145L85.439,51.688z M31.516,42.033l8.976,20.646l42.58-11.933l-9.715-18.37L31.516,42.033z
				 M12.903,29.771l8.492,19.814l7.518-8.675l2.584-0.749l-6.529-13.565L12.903,29.771z M84.623,49.457l11.23-15.792l-19.408-9.718
				l-5.254,6.922l3.264-0.753L84.623,49.457z M26.657,25.591L33.356,39.6l7.141-1.647l6.867-11.385l-15.012-7.727L26.657,25.591z
				 M48.956,27.717l-5.804,9.624l12.906-2.979L48.956,27.717z M48.621,25.16l1.062,0.75l8.672,7.92l1.332-0.307l-5.37-13.134
				L48.621,25.16z M55.959,19.556l5.66,13.522l6.596-1.522l7.555-10.01l6.789,3.426l-3.416-10.917L55.959,19.556z"/>
		</g>
	</g>
</g>
<g id="Layer_3_1_">
	<polygon display="none" fill="none" stroke="#FFFFFF" stroke-width="1.5" stroke-miterlimit="10" points="12.361,82.694 
		44.027,106.361 104.027,86.861 104.027,58.527 95.527,49.694 82.693,43.694 78.527,34.694 56.693,39.693 51.318,45.068 
		37.943,38.443 31.976,46.201 19.194,49.36 12.361,57.194 	"/>
	
		<line display="none" fill="none" stroke="#FFFFFF" stroke-width="1.5" stroke-miterlimit="10" x1="19.194" y1="49.36" x2="27.318" y2="67.693"/>
	
		<line display="none" fill="none" stroke="#FFFFFF" stroke-width="1.5" stroke-miterlimit="10" x1="27.318" y1="67.693" x2="27.318" y2="93.873"/>
	
		<line display="none" fill="none" stroke="#FFFFFF" stroke-width="1.5" stroke-miterlimit="10" x1="44.068" y1="78.818" x2="35.568" y2="58.527"/>
	
		<line display="none" fill="none" stroke="#FFFFFF" stroke-width="1.5" stroke-miterlimit="10" x1="35.568" y1="58.527" x2="27.318" y2="67.693"/>
	
		<line display="none" fill="none" stroke="#FFFFFF" stroke-width="1.5" stroke-miterlimit="10" x1="44.068" y1="78.818" x2="44.027" y2="106.361"/>
	
		<line display="none" fill="none" stroke="#FFFFFF" stroke-width="1.5" stroke-miterlimit="10" x1="35.568" y1="58.527" x2="74.193" y2="48.693"/>
	
		<line display="none" fill="none" stroke="#FFFFFF" stroke-width="1.5" stroke-miterlimit="10" x1="74.193" y1="48.693" x2="82.943" y2="67.693"/>
	
		<line display="none" fill="none" stroke="#FFFFFF" stroke-width="1.5" stroke-miterlimit="10" x1="82.943" y1="67.693" x2="82.943" y2="93.712"/>
	
		<line display="none" fill="none" stroke="#FFFFFF" stroke-width="1.5" stroke-miterlimit="10" x1="82.943" y1="67.693" x2="95.527" y2="49.694"/>
	
		<line display="none" fill="none" stroke="#FFFFFF" stroke-width="1.5" stroke-miterlimit="10" x1="51.318" y1="45.068" x2="53.318" y2="46.068"/>
	
		<line display="none" fill="none" stroke="#FFFFFF" stroke-width="1.5" stroke-miterlimit="10" x1="53.318" y1="46.068" x2="45.959" y2="55.881"/>
	
		<line display="none" fill="none" stroke="#FFFFFF" stroke-width="1.5" stroke-miterlimit="10" x1="53.318" y1="46.068" x2="59.387" y2="52.462"/>
	
		<line display="none" fill="none" stroke="#FFFFFF" stroke-width="1.5" stroke-miterlimit="10" x1="56.693" y1="39.693" x2="61.768" y2="51.857"/>
	
		<line display="none" fill="none" stroke="#FFFFFF" stroke-width="1.5" stroke-miterlimit="10" x1="82.693" y1="43.694" x2="77.193" y2="40.943"/>
	
		<line display="none" fill="none" stroke="#FFFFFF" stroke-width="1.5" stroke-miterlimit="10" x1="77.193" y1="40.943" x2="70.814" y2="49.553"/>
	
		<line display="none" fill="none" stroke="#FFFFFF" stroke-width="1.5" stroke-miterlimit="10" x1="44.068" y1="78.818" x2="82.943" y2="67.693"/>
	
		<line display="none" fill="none" stroke="#FFFFFF" stroke-width="1.5" stroke-miterlimit="10" x1="31.976" y1="46.201" x2="36.88" y2="58.193"/>
	<g display="none">
	</g>
	<g>
		<g>
			<g>
				<path fill="#FFFFFF" d="M12.86,44.99l14.89-3.399 M31.754,56.508L75.788,44.99 M75.788,44.99l9.453,22.005 M12.86,44.99
					l10.159,22.005 M54.99,35.318l6.417,13.307 M82.023,29.149l4.884,13.077 M12.86,44.99L4.677,55.784 M54.99,35.318l-6.483,5.952
					 M78.043,37.3l-6.559,8.685 M51.379,42.85L33.46,32.997 M78.043,37.3l20.602,11.449 M33.46,32.997l-5.71,8.594 M54.99,35.318
					l27.035-6.169 M85.241,66.996L41.085,78.514 M98.645,48.749l10.441,11.197 M51.379,42.85l6.434,6.732 M98.645,48.749
					L85.241,66.996 M51.379,42.85l-8.19,10.675 M27.75,41.591l6.556,14.193 M4.677,55.784v27.301 M4.677,83.083l36.402,27.09
					 M41.079,110.173l68.007-21.868 M85.241,66.996v28.977 M23.019,66.996l-0.141,29.633 M31.754,56.508l9.331,22.006
					 M31.754,56.508l-8.736,10.488 M41.079,110.173l0.006-31.659 M109.086,59.946v28.359"/>
				<path fill="#FFFFFF" d="M41.155,110.414l-0.077-0.238l-0.149,0.199L4.527,83.285l0.149-0.199h-0.25V55.784h0.25l-0.199-0.151
					L12.66,44.84l0.199,0.151l-0.056-0.244l14.793-3.377l5.655-8.511l0.208,0.138l0.121-0.219l14.889,8.187l6.351-5.831l0.169,0.184
					l-0.056-0.244l27.035-6.169l0.056,0.244l0.234-0.087l4.852,12.991l11.656,6.479l-0.121,0.219l0.183-0.17l10.44,11.197
					l-0.183,0.17h0.25v28.359h-0.25l0.076,0.238L41.155,110.414z M41.335,78.708l-0.006,31.123l43.663-14.041V67.32L41.335,78.708z
					 M23.128,96.503l17.701,13.172l0.006-31.11l-9.151-21.582l-8.416,10.104L23.128,96.503z M4.927,82.958L22.63,96.132
					l0.138-29.082l-9.96-21.577L4.927,55.868V82.958z M85.491,67.078V95.63l23.345-7.508V60.044L98.667,49.14L85.491,67.078z
					 M32.098,56.677l9.133,21.542l43.666-11.391l-9.252-21.541L32.098,56.677z M13.216,45.166l9.864,21.367l8.483-10.184l0.192,0.16
					l-0.063-0.242l2.286-0.598l-6.37-13.789L13.216,45.166z M76.018,44.892l9.281,21.604l12.977-17.667L78.111,37.624l-6.117,8.1
					l3.73-0.976l0.062,0.242L76.018,44.892z M28.036,41.613l6.433,13.927l8.581-2.245l7.954-10.367l-17.462-9.601L28.036,41.613z
					 M51.4,43.233l-7.562,9.856l13.584-3.553L51.4,43.233z M51.56,42.677l6.415,6.714l3.129-0.818L54.911,35.73l-5.979,5.489
					L51.5,42.63l-0.121,0.219L51.56,42.677z M55.351,35.492l6.247,12.952l9.762-2.554l-0.073-0.057l6.559-8.685l0.199,0.151
					l0.121-0.219l8.271,4.597l-4.567-12.236L55.351,35.492z"/>
			</g>
			<g>
				<path fill="#FFFFFF" d="M41.055,111.345L3.547,83.615V55.536l8.866-11.548l14.646-3.396l6.076-9.112l15.204,8.412l6.26-5.49
					l28.068-6.527l5.151,13.567l11.513,6.468l10.883,11.612v29.56L41.055,111.345z M42.214,79.387l-0.006,29.239L84.113,95.15
					V68.457L42.214,79.387z M24.009,96.065l15.941,11.862l0.006-29.184l-8.519-20.092l-7.292,8.756L24.009,96.065z M86.37,67.367
					v27.059l21.587-6.942V60.391l-9.208-9.877L86.37,67.367z M5.805,82.518l15.954,11.874l0.13-27.15L12.623,47.17l-6.818,8.993
					V82.518z M33.303,57.27l8.44,19.905l41.942-10.939l-8.552-19.908L33.303,57.27z M14.468,45.781l8.826,19.121l7.957-9.391
					l1.488-0.426l-5.63-12.189L14.468,45.781z M85.499,64.738l11.479-15.625l-18.625-10.35l-4.131,5.469l2.187-0.55L85.499,64.738z
					 M29.039,41.691l5.919,12.813l7.726-2.021l7.004-9.275l-15.862-8.722L29.039,41.691z M51.476,44.585l-5.318,6.989l9.598-2.511
					L51.476,44.585z M58.254,48.41l1.594-0.417l-5.214-10.814l-4.206,3.86l1.713,1.046L58.254,48.41z M56.621,36.104l5.451,11.307
					l8.624-2.255l7.147-9.302l6.936,3.898l-3.467-9.283L56.621,36.104z"/>
				<path fill="#FFFFFF" d="M41.009,111.623L3.297,83.74V55.451l8.972-11.687l0.087-0.021l14.55-3.374l6.147-9.221l15.252,8.438
					l6.236-5.43l28.281-6.576l5.196,13.687l11.493,6.471l10.95,11.686v29.84l-0.174,0.056L41.009,111.623z M3.797,83.488
					l37.303,27.58l68.865-22.17V59.621L99.176,48.108l-11.557-6.494l-5.107-13.448L54.717,34.63l-6.345,5.564l-15.156-8.385
					l-6.004,9.003L12.557,44.21L3.798,55.62L3.797,83.488L3.797,83.488z M41.958,108.968l0.006-29.774l42.399-11.062v27.199
					l-0.174,0.057L41.958,108.968z M42.464,79.582l-0.006,28.703l41.405-13.316V68.781L42.464,79.582z M40.2,108.425L23.758,96.19
					l0.138-28.874l7.612-9.139l8.699,20.566L40.2,108.425z M24.259,95.94L39.7,107.429l0.006-28.635l-8.339-19.668l-6.972,8.371
					L24.259,95.94z M22.006,94.888L5.555,82.644V56.08l7.12-9.392l9.464,20.5v0.056L22.006,94.888z M6.055,82.392l15.456,11.504
					l0.127-26.602L12.57,47.653l-6.516,8.594v26.145H6.055z M86.12,94.768V67.285l0.049-0.066l12.558-17.095l9.48,10.169v27.373
					L86.12,94.768z M86.62,67.449v26.633l21.087-6.781V60.49l-8.936-9.583L86.62,67.449z M41.598,77.473l-0.084-0.199L32.96,57.102
					l42.319-11.07l8.751,20.374L41.598,77.473z M33.646,57.438l8.243,19.44L83.34,66.067l-8.35-19.443L33.646,57.438z
					 M23.232,65.362l-9.12-19.757l13.139-2.999l5.837,12.638l-1.695,0.485L23.232,65.362z M14.824,45.956l8.533,18.484l7.753-9.149
					l1.28-0.367l-5.423-11.74L14.824,45.956z M85.441,65.237l-9.18-21.26l-2.668,0.671l4.69-6.209l19.062,10.593L85.441,65.237z
					 M76.554,43.388l0.084,0.195l8.919,20.655l11.053-15.045L78.422,39.087l-3.572,4.729L76.554,43.388z M34.819,54.799
					l-6.065-13.13l4.991-7.513l16.317,8.972l-7.23,9.575L34.819,54.799z M29.325,41.713l5.772,12.496l7.439-1.946l6.778-8.976
					l-15.408-8.472L29.325,41.713z M45.521,52l5.934-7.798l4.775,4.997L45.521,52z M51.498,44.97l-4.702,6.179l8.486-2.22
					L51.498,44.97z M58.176,48.688l-6.193-6.407l-1.969-1.203l4.698-4.312l5.493,11.391L58.176,48.688z M50.841,40.998l1.479,0.913
					l6.012,6.22l1.158-0.303L54.554,37.59L50.841,40.998z M61.938,47.705L56.26,35.93l25.21-5.754l3.783,10.128l-7.342-4.127
					l-7.068,9.198L61.938,47.705z M56.982,36.278l5.226,10.839l8.342-2.182l7.229-9.406l6.527,3.67l-3.15-8.438L56.982,36.278z"/>
			</g>
		</g>
	</g>
</g>
<g id="Layer_2_1_" display="none">
</g>
</svg>
